<svg xmlns="http://www.w3.org/2000/svg" viewBox="0 0 640 639.94672" height="639.947" width="640"><path d="M39.703 637.573c-17.938-5.735-32.432-20.62-37.721-38.737C.2 592.73 0 564.638 0 319.884c0-263.601.075-272.4 2.368-279.77 5.68-18.25 20.464-32.781 38.796-38.132C47.27.2 75.362 0 320.116 0c263.601 0 272.4.074 279.77 2.368 18.25 5.68 32.781 20.464 38.132 38.796C639.8 47.27 640 75.352 640 320c0 244.648-.2 272.73-1.982 278.836-5.35 18.332-19.882 33.116-38.132 38.796-7.372 2.294-16.076 2.366-280.31 2.3-260.946-.064-273.01-.165-279.873-2.36zm553.078-20.13c9.274-2.576 21.552-14.704 24.965-24.662 2.131-6.218 3.075-524.75.98-538.395-2.144-13.957-10.456-25.072-23.101-30.887l-6.25-2.874-263.125-.348c-179.538-.237-265.843.07-271.683.968-10.396 1.598-14.792 3.7-21.858 10.453-7.015 6.706-9.85 12.366-11.465 22.886-.892 5.811-1.2 92.638-.965 271.666l.346 263.125 2.872 6.25c4.616 10.044 14.468 19.06 23.995 21.957 5.006 1.523 539.797 1.386 545.289-.139zm-425.566-77.501c-10.329-1.204-15.338-2.788-26.59-8.408-11.608-5.799-25.897-20.098-32.136-32.159C99.5 481.997 100 492.559 100 320c0-172.526-.499-161.97 8.473-179.375 6.192-12.012 21.584-27.268 33.146-32.853 18.527-8.949 6.718-8.397 179.631-8.397h155.625l10.098 3.424c24.2 8.206 42.022 26.029 50.228 50.228l3.424 10.098v313.75l-3.424 10.098c-9.964 29.384-34.13 49.12-64.868 52.974-12.235 1.534-291.946 1.53-305.118-.005zm303.273-21.236c17.363-2.51 34.176-14.253 42.387-29.606 7.016-13.118 7.08-14.24 7.103-126.288L520 260H121.25v106.023c0 93.389.238 106.832 1.995 112.813 6.132 20.877 24.136 36.44 46.13 39.876 9.485 1.481 290.86 1.476 301.113-.006zM308.125 479.97c-41.549-4.46-75.882-35.053-86.242-76.846-2.852-11.505-2.874-33.075-.047-45.625 2.775-12.32 12.647-32.427 20.682-42.128 12.636-15.255 32.664-27.67 52.994-32.852 13.604-3.467 35.348-3.47 48.975-.007 21.107 5.364 40.547 17.787 54.008 34.512 7.388 9.179 16.491 27.114 18.936 37.304 8.623 35.938-1.067 71.807-26.181 96.921-11.583 11.583-27.62 21.172-42.54 25.436-6.16 1.76-27.348 4.798-30.585 4.385-.688-.088-5.188-.583-10-1.1zm20.625-21.263c13.26-1.719 23.57-5.473 34.054-12.4 20.609-13.619 32.796-33.087 35.823-57.23 4.805-38.31-21.337-76.076-59.432-85.856-4.274-1.097-12.788-1.972-19.195-1.972-25.722 0-47.706 11.056-63.454 31.912-23.637 31.303-20.386 74.452 7.727 102.565 14.596 14.597 31.193 22.019 53.852 24.082.688.063 5.469-.433 10.625-1.101zm-24.216-20.02c-8.703-2.18-21.672-9.938-28.267-16.912-3.756-3.971-8.268-10.722-10.99-16.444-4.249-8.929-4.655-10.76-5.071-22.832-.378-10.968 0-14.46 2.268-21.25 3.43-10.243 8.49-18.222 16.033-25.277 12.25-11.459 24.19-15.988 42.032-15.947 26.988.063 48.3 15.547 57.038 41.438 2.22 6.578 2.593 10.122 2.217 21.036-.416 12.073-.822 13.903-5.07 22.832-6.408 13.466-14.923 22.157-28.115 28.694-10.009 4.96-10.957 5.179-23.829 5.519-7.373.195-15.583-.191-18.246-.858zm31.96-23.473c7.477-3.658 15.044-11.218 18.74-18.721 4.159-8.442 4.136-24.59-.045-33.081-14.45-29.344-56.025-29.503-70.204-.268-3.625 7.473-4.706 19.546-2.467 27.543 3.047 10.882 13.442 21.966 24.56 26.189 7.244 2.75 22.113 1.91 29.416-1.662zM158.75 181.94v-58.06l-3.917 1.365c-6.461 2.253-18.715 12.424-23.8 19.755-8.962 12.92-9.783 17.862-9.783 58.882V240h37.5v-58.06zM200 180v-60h-20v120h20v-60zm38.75 0v-60h-17.5v120h17.5v-60zm281.228 27.188c-.024-36.282-1.142-45.143-7.103-56.288-8.03-15.015-24.843-26.972-41.625-29.606-5.028-.79-46.842-1.279-109.688-1.285L260 120v120h260l-.022-32.812zm-88.45 12.786c-7.836-1.62-17.487-7.314-22.14-13.063-6.919-8.547-8.552-12.923-9.11-24.411-.66-13.545 2.329-22.308 10.46-30.675 15.897-16.357 42.274-16.643 57.817-.627 8.46 8.717 10.82 15.001 10.82 28.802 0 10.04-.468 12.826-3.029 18.029-8.025 16.306-27.046 25.62-44.818 21.945zm17.843-23.603c12.697-7.225 12.472-25.514-.408-33.036-12.08-7.056-27.713 2.345-27.713 16.665 0 7.599 3.833 13.458 11.26 17.215 6.133 3.102 10.292 2.893 16.86-.844z" fill="#ffffff"/></svg>