<svg xmlns="http://www.w3.org/2000/svg" viewBox="0 0 639.99994 639.94672" height="639.947" width="640"><path d="M39.702 637.573c-17.937-5.735-32.431-20.62-37.72-38.737C.2 592.73 0 564.638 0 319.884c0-263.601.074-272.4 2.368-279.77 5.68-18.25 20.464-32.781 38.796-38.132C47.27.2 75.362 0 320.116 0c263.601 0 272.4.074 279.77 2.368 18.25 5.68 32.781 20.464 38.132 38.796C639.8 47.27 640 75.352 640 320c0 244.648-.2 272.73-1.982 278.836-5.351 18.332-19.882 33.116-38.132 38.796-7.372 2.294-16.076 2.366-280.31 2.3-260.946-.064-273.01-.165-279.874-2.36zm553.079-20.13c9.274-2.576 21.551-14.704 24.965-24.662 2.131-6.218 3.075-524.75.98-538.395-2.144-13.957-10.456-25.072-23.101-30.887l-6.25-2.874-263.125-.348c-179.538-.237-265.843.07-271.683.968-10.396 1.598-14.792 3.7-21.858 10.453-7.015 6.706-9.85 12.366-11.465 22.886-.892 5.811-1.2 92.638-.965 271.666l.346 263.125 2.872 6.25c4.616 10.044 14.468 19.06 23.995 21.957 5.006 1.523 539.797 1.386 545.289-.139zm-152.604-137.57c-7.79-1.602-12.986-6.736-35.073-34.653-26.832-33.915-27.656-34.844-28.88-32.551-.5.938-3 11.55-5.556 23.581-5.35 25.184-7.253 31.221-11.4 36.15-6.098 7.247-8.229 7.6-45.82 7.6-30.322 0-35.444-.293-44.186-2.526-20.069-5.128-40.055-17.401-60.898-37.398C165.345 398.803 125.031 328.141 87.8 228.75c-3.824-10.208-4.464-13.454-4.561-23.125-.128-12.793 1.913-17.896 9.094-22.736 7.492-5.048 15.113-5.691 55.871-4.711 36.44.876 38.023 1.015 40.3 3.554 1.304 1.454 4.505 9.112 7.113 17.018 10.892 33.021 23.99 59.304 49.056 98.437 6.668 10.41 8.77 12.813 11.206 12.813 6.027 0 6.622-4.527 6.622-50.398 0-26.406-.491-43.137-1.337-45.564-1.546-4.436-6.452-7.154-15.25-8.45-11.025-1.625-13.823-9.849-7.249-21.31 4.493-7.833 11.11-13.77 19.394-17.402 12.495-5.478 18.531-6.251 48.817-6.251 26.597 0 29.176.197 34.439 2.632 8.287 3.835 14.216 9.58 17.59 17.046 2.962 6.552 2.973 6.756 3.596 65.947l.625 59.375 3.962.384c5.583.542 9.064-3.107 24.817-26.009 24.844-36.12 38.138-59.603 43.016-75.983 2.242-7.526 3.554-9.66 8.88-14.449 12.277-11.039 11.036-10.818 60.785-10.818 43.367 0 43.836.028 47.975 2.817 13.211 8.903 13.144 29.67-.18 56.172-8.746 17.394-18.549 31.434-46.121 66.053-18.706 23.486-25.01 32.966-25.01 37.613 0 2.734 8.29 13.904 37.188 50.119 20.454 25.63 37.912 48.22 38.796 50.198 4.9 10.957 2.474 22.624-6.257 30.098-9.008 7.71-11.57 8.06-61.871 8.452-24.9.194-46.916.015-48.928-.399zm95.039-22.782c3.537-1.75 3.732-4.722.58-8.817-1.65-2.145-18.247-23.024-36.882-46.399C480.28 378.5 464.076 357.406 462.907 355c-1.168-2.406-2.364-7.554-2.657-11.44-1.032-13.68 2.791-20.434 33.502-59.185 32.592-41.124 45.205-62.074 47.123-78.267l.723-6.108h-38.13c-37.44 0-38.196.05-41.737 2.768-4.662 3.578-5.417 4.875-8.94 15.357-4.27 12.709-16.298 34.293-33.428 59.984-25.778 38.662-30.47 44.05-41.737 47.928-11.675 4.02-27.702-.233-33.564-8.906l-2.812-4.16-.01-58.048c0-34.566-.509-59.855-1.248-62.516-.683-2.457-2.692-5.832-4.465-7.5-3.102-2.917-4.005-3.047-23.824-3.43-21.55-.415-34.446.889-43.125 4.361l-5.159 2.065 4.351 2.232c6.419 3.293 11.901 10.234 14.125 17.883 1.665 5.73 1.908 14.042 1.595 54.682-.356 46.356-.456 48.089-3.066 52.925-5.646 10.463-14.286 15.625-26.154 15.625-10.665 0-15.688-3.395-24.043-16.25-26.558-40.861-46.965-81.31-55.272-109.55l-1.522-5.177-31.405-.88c-35.256-.987-38.28-.554-38.28 5.472 0 7.373 18.72 55.338 36.155 92.635 36.823 78.774 78.883 133.042 118.22 152.532 16.318 8.086 21.06 8.811 55.12 8.429l29.88-.336 1.56-5c.857-2.75 3.818-15.391 6.58-28.091 5.591-25.714 8.212-31.399 15.97-34.64 6.605-2.76 15.466-1.594 21.915 2.884 3.017 2.095 14.012 14.713 26.02 29.863 11.439 14.429 22.97 28.484 25.626 31.234l4.828 5 43.75-.625c24.063-.344 44.691-1.09 45.841-1.66z" fill="#ffffff"/></svg>